<?xml version="1.0" encoding="UTF-8"?>
<svg width="18px" height="18px" viewBox="0 0 18 18" version="1.1" xmlns="http://www.w3.org/2000/svg" xmlns:xlink="http://www.w3.org/1999/xlink">
    <!-- Generator: Sketch 53.2 (72643) - https://sketchapp.com -->
    <title>标志打印</title>
    <desc>Created with Sketch.</desc>
    <g id="Page-1" stroke="none" stroke-width="1">
        <g id="favicon" transform="translate(-628.000000, -188.000000)">
            <g id="标志打印" transform="translate(628.000000, 188.000000)">
                <path d="M17.2170211,4.06980578 C16.9002207,3.75300541 16.4844202,3.57480521 16.0290197,3.57480521 L14.7717182,3.57480521 L14.7717182,1.97100334 C14.7717182,1.03050225 14.0094173,0.268201359 13.0689163,0.268201359 L4.92120677,0.268201359 C3.98070568,0.268201359 3.21840479,1.03050225 3.21840479,1.97100334 L3.21840479,3.58470522 L1.96110333,3.58470522 C1.04040226,3.58470522 0.288001382,4.33710609 0.288001382,5.25780717 L0.288001382,11.5641145 C0.288001382,12.4848156 1.04040226,13.2372165 1.96110333,13.2372165 L3.21840479,13.2372165 L3.21840479,16.0686197 C3.21840479,17.0091208 3.98070568,17.7714217 4.92120677,17.7714217 L13.0590162,17.7714217 C13.9995173,17.7714217 14.7618182,17.0091208 14.7618182,16.0686197 L14.7618182,13.2372165 L16.0290197,13.2372165 C16.9497208,13.2372165 17.7021216,12.4848156 17.7021216,11.5641145 L17.7021216,5.25780717 C17.7021216,4.81230665 17.5239214,4.38660615 17.2170211,4.06980578 Z M4.92120677,1.5057028 L13.0590162,1.5057028 C13.3164165,1.5057028 13.5243168,1.71360304 13.5243168,1.97100334 L13.5243168,3.58470522 L4.45590623,3.58470522 L4.45590623,1.97100334 C4.45590623,1.71360304 4.66380647,1.5057028 4.92120677,1.5057028 L4.92120677,1.5057028 Z M14.1480175,9.37621196 L3.84210552,9.37621196 C3.49560511,9.37621196 3.21840479,9.65341228 3.21840479,9.99991268 L3.21840479,11.999715 L1.96110333,11.999715 C1.72350305,11.999715 1.52550282,11.8017148 1.52550282,11.5641145 L1.52550282,5.25780717 C1.52550282,5.02020689 1.72350305,4.82220666 1.96110333,4.82220666 L16.0290197,4.82220666 C16.26662,4.82220666 16.4646202,5.02020689 16.4646202,5.25780717 L16.4646202,11.5641145 C16.4646202,11.8017148 16.26662,11.999715 16.0290197,11.999715 L14.7717182,11.999715 L14.7717182,9.99991268 C14.7717182,9.65341228 14.4945179,9.37621196 14.1480175,9.37621196 Z M4.45590623,10.6137134 L13.5243168,10.6137134 L13.5243168,16.0983198 C13.5045168,16.3458201 13.3065165,16.5339203 13.0590162,16.5339203 L4.92120677,16.5339203 C4.66380647,16.5339203 4.45590623,16.32602 4.45590623,16.0686197 L4.45590623,10.6137134 L4.45590623,10.6137134 Z M15.5241191,6.831909 C15.5241191,6.25770833 15.0588186,5.78250778 14.4747179,5.78250778 C13.9005172,5.78250778 13.4253167,6.24780832 13.4253167,6.831909 C13.4253167,7.40610967 13.8906172,7.88131022 14.4747179,7.88131022 C15.0489186,7.88131022 15.5142191,7.41600968 15.5241191,6.831909 Z M7.24770948,12.890716 L10.6830135,12.890716 C11.0295139,12.890716 11.2374141,12.7224159 11.2374141,12.4353155 C11.2374141,12.1482152 11.0295139,11.979915 10.6830135,11.979915 L7.24770948,11.979915 C6.90120908,11.979915 6.69330884,12.1482152 6.69330884,12.4353155 C6.69330884,12.7224159 6.90120908,12.890716 7.24770948,12.890716 L7.24770948,12.890716 Z M7.24770948,15.405319 L10.6830135,15.405319 C11.0295139,15.405319 11.2374141,15.2370188 11.2374141,14.9499184 C11.2374141,14.6628181 11.0196139,14.4747179 10.6830135,14.4747179 L7.24770948,14.4747179 C6.91110909,14.4747179 6.69330884,14.6628181 6.69330884,14.9499184 C6.69330884,15.2271188 6.90120908,15.405319 7.24770948,15.405319 L7.24770948,15.405319 Z" id="形状"></path>
            </g>
        </g>
    </g>
</svg>