<?xml version="1.0" encoding="UTF-8"?>
<svg width="17px" height="17px" viewBox="0 0 17 17" version="1.1" xmlns="http://www.w3.org/2000/svg" xmlns:xlink="http://www.w3.org/1999/xlink">
    <!-- Generator: Sketch 53.2 (72643) - https://sketchapp.com -->
    <title>标志发放</title>
    <desc>Created with Sketch.</desc>
    <g id="Page-1" stroke="none" stroke-width="1" >
        <g id="favicon" transform="translate(-526.000000, -188.000000)" >
            <g id="标志发放" transform="translate(526.000000, 188.000000)">
                <path d="M16.849052,3.90237376 L16.849052,3.08864115 C16.849052,1.1624953 15.9635639,0.318184805 13.9395981,0.318184805 L3.18723042,0.318184805 C2.17524384,0.318184805 1.28976128,0.558070592 0.657259409,1.40237722 C0.277763758,1.88450198 0.151265208,2.48656963 0.151265208,3.08863729 L0.151265208,13.4437206 C0.151265208,15.2499236 1.41624889,16.4540589 3.31371984,16.4540589 L13.460225,16.4540589 C13.8397206,16.4540589 14.345713,16.4540589 14.345713,15.8519912 C14.2192146,15.4898094 14.0860579,15.2499236 13.453567,15.2499236 L3.31372167,15.2499236 C1.92223944,15.2499236 1.16325179,14.527913 1.16325179,13.203831 L1.16325179,3.20857051 C1.16325179,2.1243781 1.92224126,1.40236755 2.93422967,1.40236755 L14.1925806,1.40236755 C15.0780686,1.40236755 15.7105614,2.0044352 15.7105614,2.96868279 L15.7105614,11.7739116 C15.7105614,12.0514271 15.9657772,12.2772015 16.2809133,12.2772015 C16.5960494,12.2772015 16.8512652,12.0514271 16.8512652,11.7739116 L16.8512652,3.90705693 C16.8490459,3.9047051 16.8490459,3.9047051 16.8490459,3.90235328 L16.849052,3.90237376 Z" id="形状" stroke="#000000" stroke-width="0.2"></path>
                <path d="M3.62793723,3 L13.4397574,3 C13.7878279,3 14.0676947,3.28221994 14.0676947,3.62793723 C14.0676947,3.97600772 13.7854747,4.25587447 13.4397574,4.25587447 L3.62793723,4.25587447 C3.27986675,4.25587447 3,3.97365453 3,3.62793723 C3,3.282218 3.27986675,3 3.62793723,3 Z" id="路径"></path>
                <path d="M4.09293159,7 L7.5948093,7 C7.94287978,7 8.22274653,7.28221994 8.22274653,7.62793723 C8.22274653,7.97600772 7.9405266,8.25587447 7.5948093,8.25587447 L4.09293159,8.25587447 C3.74486111,8.25587447 3.46499436,7.97365453 3.46499436,7.62793723 C3.46499436,7.282218 3.74486111,7 4.09293159,7 Z" id="路径"></path>
                <path d="M4.1117462,11 L12.7829381,11 C13.1310086,11 13.4108754,11.2822199 13.4108754,11.6279372 C13.4108754,11.9760077 13.1286554,12.2558745 12.7829381,12.2558745 L4.1117462,12.2558745 C3.76367571,12.2558745 3.48380896,11.9736545 3.48380896,11.6279372 C3.48145713,11.2798668 3.76367571,11 4.1117462,11 Z" id="路径"></path>
                <path d="M12.0962022,13.5727783 C11.9715554,13.5751301 11.8492607,13.5257418 11.7598918,13.4363724 C11.6728742,13.3517066 11.6234859,13.2364676 11.6234859,13.1141715 C11.6234859,12.9918766 11.6728742,12.876637 11.7598918,12.7919706 L13.013415,11.6019467 L11.6234863,10.2802197 C11.531765,10.1979058 11.4800249,10.0803149 11.4800249,9.95801881 C11.4800249,9.83572389 11.531765,9.71813303 11.6234863,9.63581791 C11.8139842,9.45472736 12.1126667,9.45472736 12.3031646,9.63581791 L14.0341082,11.2750413 C14.1234776,11.3573553 14.1752177,11.4702436 14.1775696,11.5925378 C14.1799214,11.7148327 14.1258294,11.8300723 14.0341082,11.9100342 L12.4325145,13.4269616 C12.3454968,13.5210347 12.2232027,13.5727748 12.0962041,13.5727748 L12.0962022,13.5727783 Z" id="路径"></path>
            </g>
        </g>
    </g>
</svg>