<?xml version="1.0" encoding="UTF-8"?>
<svg width="18px" height="18px" viewBox="0 0 18 18" version="1.1" xmlns="http://www.w3.org/2000/svg" xmlns:xlink="http://www.w3.org/1999/xlink">
    <!-- Generator: Sketch 53.2 (72643) - https://sketchapp.com -->
    <title>查询统计</title>
    <desc>Created with Sketch.</desc>
    <g id="Page-1" stroke="none" stroke-width="1">
        <g id="favicon" transform="translate(-436.000000, -380.000000)">
            <g id="查询统计" transform="translate(445.583333, 389.500000) rotate(-360.000000) translate(-445.583333, -389.500000) translate(436.083333, 380.000000)">
                <g id="分组" transform="translate(0.240822, 0.240822)">
                    <path d="M6.02634197,9.85246439 L7.62634197,9.85246439 L7.62634197,13.1321526 L6.02634197,13.1321526 L6.02634197,9.85246439 L6.02634197,9.85246439 Z M9.30564345,10.945677 L10.9056434,10.945677 L10.9056434,13.1321681 L9.30564345,13.1321681 L9.30564345,10.945677 Z M8.70450972,8.75922468 L8.70450984,8.75922468 C9.67456208,8.76132705 10.6174376,8.43885877 11.383043,7.84315458 L14.3622504,10.82271 L14.3622504,10.82271 C14.4646751,10.9275901 14.6050733,10.9867239 14.7516708,10.9867284 C14.8981914,10.9867284 15.0386203,10.9275557 15.1410429,10.8227101 L15.1410429,10.8227101 C15.3560936,10.6126559 15.3601445,10.2680388 15.1500905,10.0529881 C15.1471102,10.0499369 15.1440941,10.0469208 15.1410429,10.0439405 L12.148571,7.06477178 L12.1485711,7.06477173 C12.7440993,6.29909865 13.0663988,5.35622503 13.0641713,4.3862192 L13.0641713,4.38622517 C13.065373,3.22605597 12.6050331,2.11305104 11.7846722,1.29268427 L11.784672,1.29268414 C10.9643285,0.472321236 9.85133901,0.0119919701 8.69118915,0.0132294716 L8.69118912,0.0132294716 C7.53101605,0.0119676416 6.41799566,0.472299967 5.59764822,1.29268414 L5.59764784,1.29268452 C4.77724819,2.11302423 4.31690539,3.22604269 4.31816996,4.38622543 C4.31816996,6.80513469 6.28602928,8.75920747 8.70495788,8.75920747 L8.70451103,8.75920747 L8.70450972,8.75922468 Z M8.70450972,1.10645777 L8.70450965,1.10645777 C9.57500104,1.1043983 10.4104325,1.44929594 11.0259463,2.06483883 L11.0259464,2.06483887 C11.6414603,2.68035855 11.9863094,3.51578997 11.9841863,4.38625622 L11.9841863,4.38627795 C11.9862685,5.25674033 11.6414178,6.09215628 11.025931,6.7076953 L11.025931,6.70769527 C10.4103881,7.32319755 9.57496248,7.66805827 8.7044943,7.66598158 L8.70449431,7.66598158 C6.89751791,7.67036874 5.42911804,6.20908274 5.42472877,4.40211021 C5.42471595,4.39682776 5.42471592,4.39154529 5.42472868,4.38626284 L5.42472855,4.38621045 C5.42262478,3.51572293 5.76752612,2.68028958 6.38309994,2.06481244 L6.38310018,2.0648122 C6.99860439,1.44924418 7.83404741,1.10434093 8.70453686,1.10643114 L8.70450972,1.10645777 Z" id="形状"></path>
                    <path d="M16.3571974,2.19969748 L13.7195404,2.19969748 C13.8700826,2.54125755 13.9930843,2.91042743 14.0616167,3.29300293 L16.4120187,3.29300293 L16.4120187,14.2254387 L1.10652351,14.2254387 L1.10652351,3.29300293 L3.34779331,3.29300293 C3.42977894,2.91040423 3.53888151,2.54125561 3.68935338,2.19969748 L1.05173507,2.19969748 C0.436772266,2.19969748 0.0132973397,2.69177639 0.0132973397,3.29300293 L0.0132973397,14.2254387 C0.0132973397,14.8265724 0.436749063,15.3186745 1.05173507,15.3186745 L8.21238247,15.3186745 L8.21238247,16.411864 L5.97165408,16.411864 C5.67106304,16.411864 5.42475385,16.6576801 5.42475385,16.9586695 C5.42475385,17.2593069 5.67106304,17.5050766 5.97165408,17.5050766 L11.4379106,17.5050766 C11.7383605,17.5050766 11.984223,17.2593088 11.984223,16.9582943 C11.984223,16.6576801 11.7383837,16.411864 11.4379106,16.411864 L9.30615972,16.411864 L9.30615972,15.3186745 L16.3572302,15.3186745 C16.9584355,15.3186745 17.5051946,14.8265492 17.5051946,14.2254387 L17.5051946,3.29300293 C17.5051711,2.69177446 16.9584123,2.19969748 16.357207,2.19969748 L16.3571974,2.19969748 Z" id="路径"></path>
                    <path d="M2.74653559,13.1321526 L4.34616072,13.1321526 L4.34616072,8.29429539 C4.1461372,8.10320719 4.02622579,7.89836068 3.90600599,7.66592697 L2.74616072,7.66592697 L2.74616072,13.1321526 L2.74653924,13.1321449 L2.74653559,13.1321526 Z" id="路径"></path>
                </g>
            </g>
        </g>
    </g>
</svg>