<?xml version="1.0" encoding="UTF-8"?>
<svg width="19px" height="18px" viewBox="0 0 19 18" version="1.1" xmlns="http://www.w3.org/2000/svg" xmlns:xlink="http://www.w3.org/1999/xlink">
    <!-- Generator: Sketch 53.2 (72643) - https://sketchapp.com -->
    <title>改型备案</title>
    <desc>Created with Sketch.</desc>
    <g id="Page-1" stroke="none" stroke-width="1" fill="none" fill-rule="evenodd">
        <g id="favicon" transform="translate(-835.000000, -188.000000)" fill-rule="nonzero">
            <g id="改型备案" transform="translate(835.000000, 188.000000)">
                <path d="M12.4437299,4.78983746 L3.23441686,4.78983746 L3.23441684,4.78983746 C2.95185641,4.78983744 2.72279633,4.56077738 2.72279633,4.27821695 C2.72279634,3.99565652 2.95185641,3.76659644 3.23441684,3.76659644 L12.4437299,3.76659644 L12.4437299,3.76659644 C12.7262903,3.76659646 12.9553504,3.99565652 12.9553504,4.27821695 C12.9553504,4.56077738 12.7262903,4.78983746 12.4437299,4.78983746 L12.4437299,4.78983746 Z M8.35071188,8.88287347 L3.23441686,8.88287347 L3.23441684,8.88287347 C2.95185101,8.88287346 2.72278734,8.65380979 2.72278734,8.37124397 C2.72278735,8.08867814 2.95185101,7.85961447 3.23441684,7.85961447 L8.35071185,7.85961447 L8.35071183,7.85961447 C8.63327766,7.85961445 8.86234133,8.08867814 8.86234133,8.37124397 C8.86234135,8.65380979 8.63327766,8.88287347 8.35071183,8.88287347 L8.35071188,8.88287347 Z M6.30419387,12.9759095 L3.23441686,12.9759095 L3.23441684,12.9759095 C2.95184742,12.9759095 2.72277835,12.7468404 2.72277835,12.464271 C2.72277836,12.1817016 2.95184742,11.9526325 3.23441684,11.9526325 L6.30419385,11.9526325 L6.30419384,11.9526325 C6.58676326,11.9526325 6.81583233,12.1817016 6.81583233,12.464271 C6.81583235,12.7468404 6.58676326,12.9759095 6.30419384,12.9759095 C6.30419383,12.9759095 6.30419383,12.9759095 6.30419382,12.9759095 L6.30419387,12.9759095 Z" id="形状" fill="#000000"></path>
                <path d="M13.6000203,15.6261411 L13.6000203,15.6261411 C11.1983861,15.597889 9.27437716,13.6280799 9.30263464,11.2264458 C9.33088672,8.82481163 11.3006958,6.90080267 13.70233,6.92906015 C16.0838907,6.95707607 17.9998595,8.89557225 18.0000214,11.2773128 L18.0000215,11.2772538 C17.9945079,13.6846977 16.0384199,15.6318559 13.6309759,15.6263339 C13.6206793,15.6263103 13.6103827,15.6262503 13.6000864,15.6261537 L13.6000203,15.6261411 Z" id="路径" stroke="#000000"></path>
                <path d="M15.0256087,13.1498612 L15.0256087,13.1498612 C14.9756537,13.1655709 14.9220811,13.1655709 14.8721261,13.1498612 L13.8488491,12.4131161 L12.8256081,13.1498612 L12.8256081,13.1498612 C12.7089833,13.2296027 12.5497964,13.1997028 12.4700549,13.083078 C12.4260552,13.018727 12.4137996,12.9378247 12.4367661,12.8633298 L12.8256077,11.6661191 L11.8023487,10.929374 L11.8023487,10.929374 C11.6893206,10.8446113 11.6664072,10.6842696 11.75117,10.5712415 C11.7994816,10.5068196 11.8753068,10.4689059 11.9558307,10.4689078 L13.2144489,10.4689078 L13.6032905,9.27169715 L13.6032905,9.27169715 C13.6661628,9.13889562 13.8247871,9.08220654 13.9575901,9.14507899 C14.0131585,9.17138686 14.0579003,9.21612866 14.0842082,9.27169715 L14.4730499,10.4689078 L15.7214334,10.4689078 L15.7214334,10.4689078 C15.8627135,10.4689045 15.9772455,10.5834319 15.9772491,10.7247127 C15.977251,10.8052372 15.9393373,10.8810624 15.8749154,10.9293735 L14.8516564,11.6661185 L15.2404981,12.8633292 L15.2404981,12.8633292 C15.2751769,12.9687048 15.2379844,13.0844229 15.148405,13.1498612 L15.148405,13.1498612 C15.1081331,13.1602601 15.06588,13.1602601 15.0256081,13.1498612 L15.0256087,13.1498612 Z" id="路径" stroke="#000000" stroke-width="0.8"></path>
                <path d="M13.4567543,17.580566 L2.20094127,17.580566 L2.20094119,17.580566 C1.07067968,17.580566 0.154423179,16.6643077 0.154423179,15.534048 C0.154423179,15.534048 0.154423179,15.534048 0.154423179,15.534048 L0.154423179,2.23169894 L0.154423179,2.23169925 C0.154423008,1.10143774 1.07067968,0.185181244 2.20094119,0.185181244 L13.4567542,0.185181244 L13.4567542,0.185181244 C14.5870157,0.185181195 15.5032722,1.10143774 15.5032722,2.23169925 C15.5032722,2.23169925 15.5032722,2.23169925 15.5032722,2.23169925 L15.5032722,5.81309677 L15.5032722,5.81309677 C15.5032722,6.09566259 15.2742085,6.32472627 14.9916427,6.32472627 C14.7090768,6.32472627 14.4800132,6.09566259 14.4800132,5.81309677 L14.4800132,2.23171724 L14.4800132,2.23169925 C14.4800132,1.6665694 14.021884,1.20844025 13.4567542,1.20844025 C13.4567482,1.20844025 13.4567422,1.20844025 13.4567362,1.20844025 L2.2009411,1.20844025 L2.20094112,1.20844025 C1.63581126,1.2084303 1.17767492,1.66655141 1.17766413,2.23168126 C1.17766413,2.23169326 1.17766413,2.23170525 1.17766413,2.23171724 L1.17766413,15.5340483 L1.17766413,15.5340482 C1.17766404,16.099178 1.63579328,16.5573072 2.20092313,16.5573072 C2.20092913,16.5573072 2.20093512,16.5573072 2.20094112,16.5573072 L13.4567542,16.5573072 L13.4567542,16.5573072 C13.73932,16.5573071 13.9683837,16.7863708 13.9683837,17.0689367 C13.9683837,17.3515025 13.73932,17.5805662 13.4567542,17.5805662 L13.4567543,17.580566 Z" id="路径" stroke="#000000" stroke-width="0.3" fill="#000000"></path>
            </g>
        </g>
    </g>
</svg>