<?xml version="1.0" encoding="UTF-8"?>
<svg width="18px" height="17px" viewBox="0 0 18 17" version="1.1" xmlns="http://www.w3.org/2000/svg" xmlns:xlink="http://www.w3.org/1999/xlink">
    <!-- Generator: Sketch 53.2 (72643) - https://sketchapp.com -->
    <title>检测业务</title>
    <desc>Created with Sketch.</desc>
    <g id="Page-1" stroke="none" stroke-width="1" fill="none" fill-rule="evenodd">
        <g id="favicon" transform="translate(-225.000000, -188.000000)">
            <g id="检测业务" transform="translate(225.000000, 188.000000)">
                <path d="M17.2834605,1.42984644 C17.1157485,1.1829285 16.9014498,0.96862237 16.6522112,0.798575113 C16.5287565,0.714716192 16.3959845,0.642504343 16.2562245,0.584268981 C15.9767045,0.465468843 15.6715618,0.400245238 15.3524432,0.400245238 L2.54110985,0.400245238 C2.21966185,0.400245238 1.91451918,0.465468843 1.63732852,0.584268981 C1.49756852,0.642504343 1.36479652,0.714716192 1.24134185,0.798575113 C0.994432516,0.966292955 0.780133849,1.18059909 0.610092516,1.42984644 C0.358524516,1.80255275 0.211776516,2.24980033 0.211776516,2.72965971 L0.211776516,10.8826104 C0.211776516,12.1637883 1.25997652,13.2120249 2.54110985,13.2120249 L15.3524432,13.2120249 C16.6335765,13.2120249 17.6817765,12.1637883 17.6817765,10.8826104 L17.6817765,2.72965971 C17.6817765,2.24980033 17.5350285,1.80255275 17.2834605,1.42984644 L17.2834605,1.42984644 Z M16.4463975,10.8826058 C16.4463975,11.5255242 15.9295005,12.0473131 15.2926096,12.0473131 L2.60094285,12.0473131 C1.96405194,12.0473131 1.44715497,11.5255242 1.44715497,10.8826058 L1.44715497,2.72965516 C1.44715497,2.08673677 1.96405194,1.56494793 2.60094285,1.56494793 L15.2926096,1.56494793 C15.9295005,1.56494793 16.4463975,2.08673677 16.4463975,2.72965516 L16.4463975,10.8826058 Z M12.6529119,14.8 L5.24064116,14.8 C4.90214747,14.8 4.62295194,15.0608944 4.62295194,15.3823536 C4.62295194,15.7038128 4.90214747,15.9647072 5.24064116,15.9647072 L12.6529119,15.9647072 C12.9938763,15.9647072 13.2706011,15.7038128 13.2706011,15.3823536 C13.2706011,15.0608944 12.9938763,14.8 12.6529119,14.8 Z" id="形状" stroke="#000000" stroke-width="0.2" fill="#000000" fill-rule="nonzero"></path>
                <path d="M14.7703286,7.38848411 L12.2964859,7.38848411 L8.82565834,4.05742141 C8.7068582,3.94328011 8.54146977,3.88737416 8.37841076,3.89669182 C8.21302233,3.90833889 8.06161039,3.99219781 7.96144557,4.12264502 L5.46198838,7.38848866 L3.12324715,7.38848866 C2.80178795,7.38848866 2.54089353,7.64938308 2.54089353,7.97084228 C2.54089353,8.29230148 2.80178795,8.5531959 3.12324715,8.5531959 L5.75082213,8.5531959 C5.93251646,8.5531959 6.10256372,8.46933698 6.2120462,8.32491328 L8.490209,5.34792613 L11.660533,8.39013234 C11.7676861,8.49495599 11.9144392,8.55319135 12.0635217,8.55319135 L14.7703059,8.55319135 C15.0917651,8.55319135 15.3526595,8.29229693 15.3526595,7.97083773 C15.3526595,7.64937854 15.0917651,7.38848411 14.7703059,7.38848411 L14.7703286,7.38848411 Z" id="路径" stroke="#000000" stroke-width="0.2" fill="#000000" fill-rule="nonzero"></path>
                <rect id="矩形" x="0" y="0" width="18" height="18"></rect>
            </g>
        </g>
    </g>
</svg>