<?xml version="1.0" encoding="UTF-8"?>
<svg width="17px" height="18px" viewBox="0 0 17 18" version="1.1" xmlns="http://www.w3.org/2000/svg" xmlns:xlink="http://www.w3.org/1999/xlink">
    <!-- Generator: Sketch 53.2 (72643) - https://sketchapp.com -->
    <title>审批流程</title>
    <desc>Created with Sketch.</desc>
    <g id="Page-1" stroke="none" stroke-width="1">
        <g id="favicon" transform="translate(-1041.000000, -188.000000)" >
            <g id="审批流程" transform="translate(1041.000000, 188.000000)">
                <path d="M12.6761564,0.112101038 L2.13529589,0.112101038 C1.17667424,0.112101038 0.395059495,0.939061931 0.395059495,1.95329896 L0.395059495,14.6838674 C0.395059495,15.6981044 1.17667424,16.5250653 2.13529589,16.5250653 L4.9753617,16.5250653 C5.27766562,16.5250653 5.52229314,16.2662455 5.52229314,15.9464031 C5.52229314,15.6265608 5.27567678,15.3677409 4.9753617,15.3677409 L2.13529589,15.3677409 C1.77929325,15.3677409 1.48892237,15.0605239 1.48892237,14.6838674 L1.48892237,1.95329896 C1.48892237,1.57664247 1.77929325,1.26942544 2.13529589,1.26942544 L12.6761564,1.26942544 C13.032159,1.26942544 13.3225299,1.57664247 13.3225299,1.95329896 L13.3225299,6.69412057 C13.3225299,7.01396295 13.5671574,7.27278277 13.8694613,7.27278277 C14.1717653,7.27278277 14.4163928,7.01396295 14.4163928,6.69412057 L14.4163928,1.95329896 C14.4163928,0.939061931 13.634778,0.112101038 12.6761564,0.112101038 Z" id="路径" stroke="#000000" stroke-width="0.2"></path>
                <path d="M5.86556823,11.6415011 L5.86556821,11.6415011 C6.21725944,11.6415011 6.50236113,11.9266028 6.50236113,12.278294 C6.50236115,12.6299852 6.21725944,12.9150869 5.86556821,12.9150869 L3.63679999,12.9150869 L3.63679996,12.9150869 C3.28510873,12.9150869 3.00000703,12.6299852 3.00000703,12.278294 C3.00000705,11.9266028 3.28510873,11.6415011 3.63679996,11.6415011 L5.86556818,11.6415011 L5.86556823,11.6415011 Z" id="路径"></path>
                <path d="M7.01977739,7.82075054 L7.01977736,7.82075054 C7.37146859,7.82075052 7.65657029,8.10585224 7.65657029,8.45754347 C7.65657031,8.8092347 7.37146859,9.0943364 7.01977736,9.0943364 L3.63679296,9.0943364 L3.63679293,9.0943364 C3.2851017,9.09433638 3,8.8092347 3,8.45754347 C3.00000002,8.10585224 3.2851017,7.82075054 3.63679293,7.82075054 L7.01977733,7.82075054 L7.01977739,7.82075054 Z" id="路径" ></path>
                <path d="M11.5967046,4 L11.5967046,4 C11.9483959,4.00000003 12.2334976,4.2851017 12.2334976,4.63679293 C12.2334975,4.98848416 11.9483959,5.27358586 11.5967046,5.27358586 L3.63679302,5.27358586 L3.636793,5.27358586 C3.28510177,5.27358584 3.00000008,4.98848416 3.00000008,4.63679293 C3.00000009,4.2851017 3.28510177,4 3.636793,4 L11.5967046,4 L11.5967046,4 Z" id="路径"></path>
                <path d="M12,9 C9.7945,9 8,10.7945 8,13 C8,15.2055 9.7945,17 12,17 C14.2055,17 16,15.2055 16,13 C16,10.7945 14.2055,9 12,9 Z" id="路径" stroke="#000000" stroke-width="1.1"></path>
                <path d="M11.625005,13.0892863 L11.625005,13.0892864 C11.625005,13.4147401 11.8888377,13.6785728 12.2142914,13.6785728 C12.5397451,13.6785728 12.8035778,13.4147401 12.8035778,13.0892864 L12.8035778,13.0892864 C12.8035778,12.7638327 12.5397451,12.5 12.2142914,12.5 C11.8888377,12.5 11.625005,12.7638327 11.625005,13.0892864 L11.625005,13.0892863 Z" id="路径"></path>
                <path d="M13.392864,13.0892863 L13.392864,13.0892864 C13.392864,13.4147401 13.6566967,13.6785728 13.9821504,13.6785728 C14.3076041,13.6785728 14.5714368,13.4147401 14.5714368,13.0892864 L14.5714368,13.0892864 C14.5714368,12.7638327 14.3076041,12.5 13.9821504,12.5 C13.6566967,12.5 13.392864,12.7638327 13.392864,13.0892864 L13.392864,13.0892863 Z" id="路径"></path>
                <path d="M9.857146,13.0892863 L9.857146,13.0892864 C9.85714605,13.4147401 10.1209787,13.6785728 10.4464324,13.6785728 C10.7718861,13.6785728 11.0357188,13.4147401 11.0357188,13.0892864 L11.0357188,13.0892864 C11.0357188,12.7638327 10.7718861,12.5 10.4464324,12.5 C10.1209787,12.5 9.857146,12.7638327 9.857146,13.0892864 L9.857146,13.0892863 Z" id="路径"></path>
            </g>
        </g>
    </g>
</svg>