<?xml version="1.0" encoding="UTF-8"?>
<svg width="17px" height="18px" viewBox="0 0 17 18" version="1.1" xmlns="http://www.w3.org/2000/svg" xmlns:xlink="http://www.w3.org/1999/xlink">
    <!-- Generator: Sketch 53.2 (72643) - https://sketchapp.com -->
    <title>送检审核</title>
    <desc>Created with Sketch.</desc>
    <g id="Page-1" stroke="none" stroke-width="1">
        <g id="favicon" transform="translate(-424.000000, -188.000000)">
            <g id="送检审核" transform="translate(424.000000, 188.000000)">
                <g id="审批" stroke="#000000" stroke-width="0.2">
                    <g id="分组" transform="translate(0.385115, 0.112101)">
                        <path d="M12.2910411,0 L1.75018061,0 C0.791558957,0 0.009944208,0.826960894 0.009944208,1.84119792 L0.009944208,14.5717664 C0.009944208,15.5860034 0.791558957,16.4129643 1.75018061,16.4129643 L4.59024641,16.4129643 C4.89255034,16.4129643 5.13717785,16.1541445 5.13717785,15.8343021 C5.13717785,15.5144597 4.89056149,15.2556399 4.59024641,15.2556399 L1.75018061,15.2556399 C1.39417796,15.2556399 1.10380709,14.9484229 1.10380709,14.5717664 L1.10380709,1.84119792 C1.10380709,1.46454143 1.39417796,1.15732441 1.75018061,1.15732441 L12.2910411,1.15732441 C12.6470437,1.15732441 12.9374146,1.46454143 12.9374146,1.84119792 L12.9374146,6.58201953 C12.9374146,6.90186191 13.1820421,7.16068173 13.484346,7.16068173 C13.78665,7.16068173 14.0312775,6.90186191 14.0312775,6.58201953 L14.0312775,1.84119792 C14.0312775,0.826960894 13.2496627,0 12.2910411,0 Z" id="路径"></path>
                    </g>
                </g>
                <path d="M11.4574576,8.47740326 C13.5675381,8.47740326 15.2782081,10.1880838 15.2782081,12.2981538 C15.2782081,13.1658902 14.988849,13.9662126 14.5014896,14.6075881 L16.3807867,16.4143754 C16.6023382,16.6271008 16.6094925,16.9791524 16.3967661,17.2007038 C16.3963084,17.2011805 16.3958499,17.2016563 16.3953905,17.2021314 C16.1835914,17.4210777 15.83556,17.4303607 15.6123896,17.2230182 L15.6055971,17.2165654 L13.7043801,15.3887195 C13.0518899,15.8644474 12.2649357,16.1201848 11.4574361,16.1189086 C9.34735555,16.1189086 7.63668559,14.4083969 7.63668559,12.2981581 C7.63668559,10.1880775 9.3473661,8.47740753 11.4574361,8.47740753 L11.4574576,8.47740326 Z M11.4574576,9.75098911 C10.0507383,9.75098911 8.91027881,10.8914434 8.91027881,12.2981679 C8.91027881,13.7048871 10.0507331,14.8453466 11.4574576,14.8453466 C12.8641768,14.8453466 14.0046363,13.7048923 14.0046363,12.2981679 C14.0046363,10.8914486 12.864182,9.75098911 11.4574576,9.75098911 Z" id="合并形状"></path>
                <path d="M5.86556823,11.6415011 L5.86556821,11.6415011 C6.21725944,11.6415011 6.50236113,11.9266028 6.50236113,12.278294 C6.50236115,12.6299852 6.21725944,12.9150869 5.86556821,12.9150869 L3.63679999,12.9150869 L3.63679996,12.9150869 C3.28510873,12.9150869 3.00000703,12.6299852 3.00000703,12.278294 C3.00000705,11.9266028 3.28510873,11.6415011 3.63679996,11.6415011 L5.86556818,11.6415011 L5.86556823,11.6415011 Z" id="路径"></path>
                <path d="M7.01977739,7.82075054 L7.01977736,7.82075054 C7.37146859,7.82075052 7.65657029,8.10585224 7.65657029,8.45754347 C7.65657031,8.8092347 7.37146859,9.0943364 7.01977736,9.0943364 L3.63679296,9.0943364 L3.63679293,9.0943364 C3.2851017,9.09433638 3,8.8092347 3,8.45754347 C3.00000002,8.10585224 3.2851017,7.82075054 3.63679293,7.82075054 L7.01977733,7.82075054 L7.01977739,7.82075054 Z" id="路径"></path>
                <path d="M11.5967046,4 L11.5967046,4 C11.9483959,4.00000003 12.2334976,4.2851017 12.2334976,4.63679293 C12.2334975,4.98848416 11.9483959,5.27358586 11.5967046,5.27358586 L3.63679302,5.27358586 L3.636793,5.27358586 C3.28510177,5.27358584 3.00000008,4.98848416 3.00000008,4.63679293 C3.00000009,4.2851017 3.28510177,4 3.636793,4 L11.5967046,4 L11.5967046,4 Z" id="路径"></path>
            </g>
        </g>
    </g>
</svg>