<?xml version="1.0" encoding="UTF-8"?>
<svg width="17px" height="16px" viewBox="0 0 17 16" version="1.1" xmlns="http://www.w3.org/2000/svg" xmlns:xlink="http://www.w3.org/1999/xlink">
    <!-- Generator: Sketch 53.2 (72643) - https://sketchapp.com -->
    <title>审批流程</title>
    <desc>Created with Sketch.</desc>
    <g id="Page-1" stroke="none" stroke-width="1" fill="none" fill-rule="evenodd">
        <g id="favicon" transform="translate(-321.000000, -188.000000)">
            <g id="审批流程" transform="translate(320.000000, 188.000000)">
                <path d="M6.35593495,4.80969178 L11.4997074,4.80969178 C11.7861006,4.80969178 12.017853,4.57793939 12.017853,4.2915462 C12.017853,4.00515301 11.7861006,3.77340063 11.4997074,3.77340063 L6.35593495,3.77340063 C6.06954176,3.77340063 5.83778937,4.00515301 5.83778937,4.2915462 C5.83778937,4.57793939 6.06954176,4.80969178 6.35593495,4.80969178 Z M6.35593495,7.63594037 L8.92782116,7.63594037 C9.21421435,7.63594037 9.44596674,7.40418798 9.44596674,7.11779479 C9.44596674,6.8314016 9.21421435,6.59964922 8.92782116,6.59964922 L6.35593495,6.59964922 C6.06954176,6.59964922 5.83778937,6.8314016 5.83778937,7.11779479 C5.83778937,7.40418798 6.06954176,7.63594037 6.35593495,7.63594037 Z M6.35593495,10.5450922 L8.06110493,10.5450922 C8.34749812,10.5450922 8.5792505,10.3133399 8.5792505,10.0269467 C8.5792505,9.74055348 8.34749812,9.5088011 8.06110493,9.5088011 L6.35593495,9.5088011 C6.06954176,9.5088011 5.83778937,9.74055348 5.83778937,10.0269467 C5.83778937,10.3133399 6.06954176,10.5450922 6.35593495,10.5450922 Z M16.0477165,12.1673589 L14.4782065,9.66518685 C15.0378037,9.30154287 15.4089843,8.67223152 15.4089843,7.95624854 C15.4089843,6.83328577 14.4970481,5.92134956 13.3740853,5.92134956 C12.2511226,5.92134956 11.3391864,6.83328577 11.3391864,7.95624854 C11.3391864,8.65904236 11.699062,9.28081705 12.2435859,9.6463452 L10.69857,12.1673589 L10.095637,12.1673589 C9.68488884,12.1673589 9.35139151,12.5008563 9.35139151,12.9116044 L9.35139151,14.7844651 C9.35139151,15.1952133 9.68488884,15.5287106 10.095637,15.5287106 L16.6525337,15.5287106 C17.0632818,15.5287106 17.3967792,15.1952133 17.3967792,14.7844651 L17.3967792,12.9116044 C17.3986633,12.5008563 17.065166,12.1673589 16.6544179,12.1673589 L16.0477165,12.1673589 Z M14.3745773,7.95624854 C14.3745773,8.47250995 13.9789025,8.90021557 13.4758303,8.94920388 L13.1819004,8.93413055 C12.7240482,8.8436906 12.3773617,8.43859497 12.3773617,7.95436437 C12.3773617,7.40607215 12.8257931,6.95764071 13.3759695,6.95764071 C13.9261459,6.95764071 14.3745773,7.40607215 14.3745773,7.95624854 Z M13.2516146,9.98737919 C13.2930662,9.98926336 13.3345179,9.99114752 13.3759695,9.99114752 C13.404232,9.99114752 13.4324945,9.99114752 13.4588728,9.98926336 L14.813588,12.1485173 L11.9270461,12.1485173 L13.2516146,9.98737919 Z M16.3623722,14.4924194 L10.3895668,14.4924194 L10.3895668,13.2036501 L16.3623722,13.2036501 L16.3623722,14.4924194 Z" id="形状" fill="#000000" fill-rule="nonzero"></path>
                <path d="M15.4010002,0.809820777 L3.31223373,0.809820777 C2.21284025,0.809820777 1.31644682,1.56903135 1.31644682,2.50017512 L1.31644682,14.187768 C1.31644682,15.1189117 2.21284025,15.8781223 3.31223373,15.8781223 L6.56935798,15.8781223 C6.91605468,15.8781223 7.19660529,15.6405068 7.19660529,15.3468681 C7.19660529,15.0532294 6.91377378,14.8156139 6.56935798,14.8156139 L3.31223373,14.8156139 C2.90395275,14.8156139 2.57094145,14.5335662 2.57094145,14.187768 L2.57094145,2.50017512 C2.57094145,2.15437691 2.90395275,1.87232922 3.31223373,1.87232922 L15.4010002,1.87232922 C15.8092812,1.87232922 16.1422925,2.15437691 16.1422925,2.50017512 L16.1422925,6.85259606 C16.1422925,7.14623476 16.4228431,7.38385028 16.7695398,7.38385028 C17.1162365,7.38385028 17.3967871,7.14623476 17.3967871,6.85259606 L17.3967871,2.50017512 C17.3967871,1.56903135 16.5003937,0.809820777 15.4010002,0.809820777 Z" id="路径" stroke="#000000" stroke-width="0.2" fill="#000000" fill-rule="nonzero"></path>
                <rect id="矩形" x="0.861071774" y="0.328998246" width="17.0536651" height="17.0526316"></rect>
            </g>
        </g>
    </g>
</svg>