<?xml version="1.0" encoding="UTF-8"?>
<svg width="18px" height="18px" viewBox="0 0 18 18" version="1.1" xmlns="http://www.w3.org/2000/svg" xmlns:xlink="http://www.w3.org/1999/xlink">
    <!-- Generator: Sketch 53.2 (72643) - https://sketchapp.com -->
    <title>系统管理</title>
    <desc>Created with Sketch.</desc>
    <g id="Page-1" stroke="none" stroke-width="1" fill="none" fill-rule="evenodd">
        <g id="favicon" transform="translate(-554.000000, -380.000000)" fill="#000000" fill-rule="nonzero">
            <g id="系统管理" transform="translate(554.000000, 380.000000)">
                <path d="M13.9969499,9.38316131 L13.9969498,9.38316128 C14.5136436,9.54897628 14.9905298,9.81970046 15.3977364,10.1783755 L15.3977364,10.1783754 C15.2294088,10.6095954 15.2668,11.0940245 15.4993079,11.4943052 L15.4993078,11.4943051 C15.7372157,11.899288 16.1465193,12.1739694 16.6114525,12.2406626 L16.6114526,12.2406631 C16.7254917,12.7659737 16.7254915,13.3096393 16.6114524,13.8349499 L16.6114524,13.8349499 C16.1453608,13.9016751 15.7348039,14.1764845 15.4954511,14.5819508 L15.495451,14.5819509 C15.2638835,14.9822897 15.2265229,15.466093 15.3938795,15.8972374 L15.3938796,15.8972373 C14.9889688,16.2570778 14.5130792,16.5279834 13.9969497,16.6924533 L13.9969497,16.6924534 C13.4522593,16.0311899 12.4746401,15.9366898 11.8133749,16.4813803 C11.7363958,16.544789 11.6657109,16.6154737 11.6023018,16.6924534 L11.602302,16.6924534 C11.0851864,16.5271635 10.6079872,16.2563853 10.2008721,15.8972392 L10.2008721,15.8972391 C10.3680399,15.4660647 10.3306853,14.9823476 10.0993005,14.5819526 L10.0993004,14.5819525 C9.8618109,14.1767534 9.45268484,13.9017943 8.98779914,13.8349516 L8.98779918,13.8349518 C8.87329901,13.3096904 8.87329901,12.7659263 8.98779911,12.2406649 L8.9877992,12.2406649 C9.45045951,12.1710908 9.85724065,11.8969911 10.0954439,11.4943074 L10.0954438,11.4943075 C10.3278199,11.0956211 10.3652297,10.6125912 10.1970154,10.1828776 L10.1970155,10.1828775 C10.6025539,9.82048473 11.0801451,9.5479514 11.5984455,9.38316332 L11.5984456,9.3831634 C12.1435192,10.0454921 13.1223108,10.1405459 13.7846395,9.59547224 C13.8620999,9.5317251 13.9332017,9.46062308 13.9969483,9.3831634 L13.9969499,9.38316131 Z M11.6022967,8.10001646 C11.4672965,8.10001646 11.3335814,8.11994498 11.2037246,8.1643022 L11.203725,8.16430205 C10.5126367,8.38478122 9.87553616,8.7479 9.33365643,9.23015993 L9.3336563,9.23016004 C8.94076014,9.58286729 8.80358205,10.1399996 8.98779926,10.634805 L8.98779927,10.6348051 C9.01665625,10.7055972 9.01217172,10.7856097 8.97558495,10.8527336 L8.97558494,10.8527337 C8.93340109,10.9179387 8.86529491,10.9619386 8.78851305,10.973591 L8.78851304,10.973591 C8.26020715,11.057586 7.83698341,11.4560794 7.72136843,11.9783771 L7.72136853,11.9783766 C7.5747842,12.6783577 7.5747842,13.4011131 7.72136834,14.1010959 L7.72136835,14.1010959 C7.83461537,14.6263116 8.26105608,15.0266433 8.79236959,15.1065254 C8.86951252,15.1142397 8.93894127,15.158597 8.97944149,15.2273827 L8.97944149,15.2273827 C9.01596923,15.2944857 9.02068281,15.3743791 8.99229866,15.4453113 L8.99229868,15.4453113 C8.80396819,15.9390216 8.93974811,16.4977412 9.33365572,16.8499563 L9.33365561,16.8499562 C9.87305507,17.3321054 10.5090482,17.6937142 11.1992242,17.9106707 L11.1992242,17.9106707 C11.7046732,18.0737173 12.2585184,17.9143501 12.6000108,17.5075985 L12.6000108,17.5075985 C12.647609,17.447418 12.7188139,17.4106443 12.7954393,17.4066699 L12.7954393,17.4066699 C12.8729,17.4074241 12.9454124,17.4448728 12.9908679,17.5075987 L12.9908678,17.5075986 C13.3311983,17.9165559 13.8865604,18.0765417 14.3922978,17.9113141 L14.3922979,17.9113141 C15.0803996,17.6928002 15.7144451,17.3310841 16.2527336,16.8499562 C16.6519491,16.4944558 16.7863059,15.9370985 16.599234,15.4414546 L16.599234,15.4414546 C16.5701723,15.3704772 16.5746594,15.2901804 16.6114483,15.2228827 L16.6114483,15.2228827 C16.6524242,15.1564816 16.7211447,15.1120848 16.7985202,15.1020254 L16.7985203,15.1020254 C17.3303278,15.0236309 17.7573941,14.6229682 17.8695216,14.0972392 L17.8695216,14.0972392 C18.0201772,13.397687 18.0201772,12.6740757 17.8695216,11.97452 L17.8695216,11.9745199 C17.7565546,11.4507211 17.3320206,11.0509958 16.802377,10.9697338 L16.802377,10.9697338 C16.7245045,10.9610284 16.6553542,10.9159615 16.6159484,10.8482336 L16.6159484,10.8482336 C16.5794207,10.7811308 16.5747071,10.7012373 16.6030913,10.6303051 L16.6030913,10.6303051 C16.7900506,10.1358617 16.652464,9.57733197 16.2572342,9.22630344 L16.2572341,9.22630338 C15.7172071,8.74473075 15.081439,8.3828108 14.3916656,8.16430214 L14.3916655,8.16430213 C13.8860864,8.0014044 13.3322149,8.16103302 12.9908789,8.56801764 L12.9908789,8.56801763 C12.9432807,8.62819817 12.8720758,8.66497182 12.7954504,8.66894624 L12.7954504,8.66894624 C12.7176773,8.66947309 12.6446135,8.63173946 12.6000218,8.56801763 L12.6000219,8.56801769 C12.3557191,8.26867242 11.9886716,8.09650152 11.6023057,8.10001715 L11.6022967,8.10001646 Z M12.8809416,12.3943047 C13.239657,12.3943047 13.5282989,12.68102 13.5282989,13.0358771 C13.5282989,13.3907341 13.2390136,13.6774495 12.8809416,13.6774495 L12.8809415,13.6774495 C12.5255519,13.6795813 12.2357234,13.3932091 12.2335929,13.0378195 C12.2335891,13.0371718 12.2335861,13.0365242 12.2335842,13.0358765 C12.2335842,12.6810194 12.5228695,12.3943041 12.8809416,12.3943041 L12.8809416,12.3943047 Z M12.8809416,11.1105182 C11.8099403,11.1105182 10.9382225,11.9745192 10.9382225,13.0358701 C10.9382225,14.0972279 11.8099385,14.9612219 12.8809416,14.9612219 C13.9519428,14.9612219 14.8236606,14.0972209 14.8236606,13.0358701 C14.8236606,11.9745122 13.9519446,11.1105182 12.8809416,11.1105182 Z M11.6755835,3.23294263 C11.6755835,3.58779968 11.9648688,3.87451506 12.3229409,3.87451506 C12.6816564,3.87451506 12.9702983,3.58779968 12.9702983,3.23294263 C12.9702983,2.87744222 12.681013,2.59072684 12.3229409,2.59072684 C11.9648688,2.59072684 11.6755835,2.88194222 11.6755835,3.23294263 Z M7.07401175,11.5830188 C7.09394027,11.5868759 7.11451179,11.595233 7.13894032,11.595233 C7.49701242,11.595233 7.78629771,11.3085177 7.78629771,10.9536606 C7.78629771,10.5981602 7.49701242,10.3114448 7.13894032,10.3114448 C7.12672602,10.3114448 7.11836879,10.3159448 7.11065462,10.319802 L7.11065462,10.2998735 L1.30693107,10.2998735 L1.30693107,6.44530259 L14.2656629,6.44530259 L14.2656629,7.08687501 L14.2695201,7.08687501 L14.2656629,7.09908931 C14.2656629,7.45458972 14.5549482,7.74066174 14.9130203,7.74066174 C15.2717358,7.74066174 15.5603777,7.45458972 15.5603777,7.09908931 L15.5565206,7.08687501 L15.5603777,7.08687501 L15.5603777,1.30758508 C15.5603777,0.601084262 15.0518771,0.0244402316 14.4289481,0.0244402316 L1.14428225,0.0244402316 C0.520709844,0.0244402316 0.0128526126,0.601084262 0.0128526126,1.30758508 L0.0128526126,15.4491679 C0.0128526126,16.1556688 0.521996564,16.7329544 1.14492561,16.7329544 L7.13958298,16.7329544 C7.49765507,16.7329544 7.78694037,16.446239 7.78694037,16.0907386 C7.78694037,15.7358816 7.49765507,15.4491662 7.13958298,15.4491662 L1.86172722,15.4491662 C1.55637023,15.4491662 1.30372658,15.1585942 1.30372658,14.8075938 L1.30372658,11.5830236 L7.07466688,11.5830236 L7.07401175,11.5830188 Z M1.30757144,1.94915793 C1.30757144,1.59430088 1.55571509,1.30758551 1.86492873,1.30758551 L13.7160089,1.30758551 C14.0213659,1.30758551 14.2740096,1.59815752 14.2740096,1.94915793 L14.2740096,5.16216167 L1.3075609,5.16216167 L1.3075609,1.94915793 L1.30757144,1.94915793 Z" id="形状"></path>
            </g>
        </g>
    </g>
</svg>