<?xml version="1.0" encoding="UTF-8"?>
<svg width="20px" height="18px" viewBox="0 0 20 18" version="1.1" xmlns="http://www.w3.org/2000/svg" xmlns:xlink="http://www.w3.org/1999/xlink">
    <!-- Generator: Sketch 53.2 (72643) - https://sketchapp.com -->
    <title>行政办公</title>
    <desc>Created with Sketch.</desc>
    <g id="Page-1" stroke="none" stroke-width="1" fill="none" fill-rule="evenodd">
        <g id="favicon" transform="translate(-637.000000, -381.000000)" fill-rule="nonzero">
            <g id="行政办公" transform="translate(638.000000, 381.000000)">
                <g id="分组" fill="#333333">
                    <path d="M0.2109375,5.90625 L17.7890625,5.90625 C17.9055601,5.90625 18,6.00068994 18,6.1171875 L18,7.1015625 C18,7.21806006 17.9055601,7.3125 17.7890625,7.3125 L0.2109375,7.3125 C0.0944399356,7.3125 1.42668369e-17,7.21806006 0,7.1015625 L0,6.1171875 C-1.42668369e-17,6.00068994 0.0944399356,5.90625 0.2109375,5.90625 Z" id="路径"></path>
                    <path d="M6.890625,1.40625 L6.890625,2.53125 L11.109375,2.53125 L11.109375,1.40625 L6.890625,1.40625 L6.890625,1.40625 Z M6.890625,0 L11.109375,0 C11.8860117,0 12.515625,0.629613281 12.515625,1.40625 L12.515625,3.9375 L5.484375,3.9375 L5.484375,1.40625 C5.484375,0.629613281 6.11398828,0 6.890625,0 Z" id="形状"></path>
                    <path d="M5.484375,6.11555233 L5.484375,17.6969477 C5.484375,17.8125422 5.38993506,17.90625 5.2734375,17.90625 L4.2890625,17.90625 C4.17256494,17.90625 4.078125,17.8125422 4.078125,17.6969477 L4.078125,6.11555233 C4.078125,5.99995784 4.17256494,5.90625 4.2890625,5.90625 L5.2734375,5.90625 C5.38993506,5.90625 5.484375,5.99995784 5.484375,6.11555233 Z" id="路径"></path>
                    <path d="M13.921875,6.11555233 L13.921875,17.6969477 C13.921875,17.8125422 13.8274351,17.90625 13.7109375,17.90625 L12.7265625,17.90625 C12.6100649,17.90625 12.515625,17.8125422 12.515625,17.6969477 L12.515625,6.11555233 C12.515625,5.99995784 12.6100649,5.90625 12.7265625,5.90625 L13.7109375,5.90625 C13.8274351,5.90625 13.921875,5.99995784 13.921875,6.11555233 Z" id="路径"></path>
                </g>
                <path d="M1.66666667,3.265625 C0.747666667,3.265625 0,3.96344722 0,4.82118056 L0,15.7100694 C0,16.5678028 0.747666667,17.265625 1.66666667,17.265625 L16.3333333,17.265625 C17.2523333,17.265625 18,16.5678028 18,15.7100694 L18,4.82118056 C18,3.96344722 17.2523333,3.265625 16.3333333,3.265625 L1.66666667,3.265625 L1.66666667,3.265625 Z" id="路径" stroke="#333333" stroke-width="1.3"></path>
            </g>
        </g>
    </g>
</svg>