<?xml version="1.0" encoding="UTF-8"?>
<svg width="19px" height="18px" viewBox="0 0 19 18" version="1.1" xmlns="http://www.w3.org/2000/svg" xmlns:xlink="http://www.w3.org/1999/xlink">
    <!-- Generator: Sketch 53.2 (72643) - https://sketchapp.com -->
    <title>样品管理</title>
    <desc>Created with Sketch.</desc>
    <g id="Page-1" stroke="none" stroke-width="1" fill="none" fill-rule="evenodd">
        <g id="favicon" transform="translate(-731.000000, -188.000000)">
            <g id="样品管理" transform="translate(731.000000, 187.500000)">
                <path d="M0.86162185,6.41705608 C0.361051592,6.41705608 -5.68434189e-14,6.76107167 -5.68434189e-14,7.23181644 L-5.68434189e-14,13.9799203 C-5.68434189e-14,14.5018064 0.449462262,15.1056917 1.04693621,15.386859 L6.034537,17.8897186 L6.04626066,17.8971791 C6.25287418,17.9930333 6.45415709,18.0409438 6.64586619,18.0409438 C7.1464531,18.0409438 7.50855383,17.6969448 7.50855383,17.2262001 L7.50855383,10.4780796 C7.50855383,9.95621013 7.05910822,9.35234144 6.46161762,9.07222333 L1.47403349,6.56723214 L1.46232648,6.55977162 L1.46232643,6.5597716 C1.27509198,6.46831077 1.07000887,6.41922028 0.861655113,6.41599027 M1.37924472,7.88789221 C1.46872084,7.88789221 1.56670731,7.91343788 1.67106987,7.96243078 L5.77894369,10.0222379 C6.14319265,10.1937136 6.38600975,10.5590117 6.38600975,10.7912042 L6.38600975,16.3336823 C6.38600975,16.4827926 6.29122132,16.5701213 6.13040316,16.5701213 L6.1304032,16.5701213 C6.02921653,16.5666964 5.92999292,16.541254 5.83964384,16.4955661 L1.73177002,14.433644 C1.36752106,14.2621683 1.1246873,13.8979193 1.1246873,13.6657435 L1.1246873,8.12431456 C1.1246873,7.97735252 1.21947573,7.89000714 1.3792281,7.89000714 M7.92926142,1.00025303 C7.52985802,1.00025303 7.14643981,1.07905476 6.84823656,1.22390255 L1.20670656,3.96213538 C0.817961064,4.14956467 0.597492263,4.44778457 0.597492263,4.77155014 C0.599623844,5.09533236 0.821141783,5.3850276 1.2024434,5.56394721 L6.78433908,8.19142108 C7.06337475,8.32347887 7.42762538,8.39591967 7.80464717,8.39591967 C8.20298479,8.39591967 8.58638635,8.31710145 8.88458959,8.1722535 L14.5261362,5.43297153 C14.9148651,5.24445979 15.1353339,4.94730569 15.1332023,4.62352346 C15.1310707,4.29975789 14.9095528,4.00899686 14.5282678,3.83114304 L8.94743794,1.20471831 L8.94743794,1.20471831 C8.62634517,1.0652561 8.27930207,0.995553557 7.92926143,1.00021972 M7.91753778,2.12171132 C8.15504258,2.12171132 8.38297025,2.16539192 8.54911703,2.2452761 L13.0893855,4.3828193 C13.1618091,4.41795692 13.3300876,4.51061393 13.3300876,4.64375484 C13.3300876,4.73854327 13.2374308,4.84077624 13.0819249,4.91746155 L8.49159764,7.14556365 L8.49159764,7.14556365 C8.27884084,7.23851009 8.0484835,7.28428863 7.81635428,7.27975303 C7.57884948,7.27975303 7.35093846,7.23608908 7.18479168,7.15727069 L2.64450659,5.01974415 C2.57101715,4.98460653 2.40380442,4.89193286 2.40380442,4.7598744 C2.40380442,4.66402018 2.49647792,4.56177055 2.6540987,4.4851019 L7.244426,2.25593401 C7.41803332,2.17073769 7.66406278,2.12174479 7.9154062,2.12174479" id="形状" fill="#000000" fill-rule="nonzero"></path>
                <path d="M15.9990427,8.39591967 C15.9990427,7.92672288 15.9990427,8.7351446 15.9990427,7.79675103 C15.9990427,7.37169633 15.656928,7.06316617 15.1840083,7.06316617 C15.0028889,7.06316617 14.8107107,7.10710542 14.6175082,7.19211636 L9.89435304,9.44158363 C9.33087366,9.69374829 8.90524769,10.2372542 8.90524769,10.7033807 L8.90524769,16.7525457 C8.90524769,17.1776004 9.24736236,17.4842188 9.72028203,17.4842188 C9.90140147,17.4842188 10.3218006,17.2518478 10.6296945,17.1052714" id="路径" stroke="#000000" stroke-width="1.2" stroke-linecap="round" fill-rule="nonzero"></path>
                <path d="M17.6096617,14.2074582 L16.3263858,16.6873221 L16.3263858,16.6873221 C16.1925428,16.9459535 15.9451986,17.1052745 15.6775238,17.1052714 L13.110983,17.1052714 L13.1109829,17.1052714 C12.8433081,17.1052744 12.5959645,16.9459535 12.4621209,16.6873221 L11.178845,14.2074582 L11.178845,14.2074581 C11.0449996,13.9488144 11.0449996,13.6301494 11.1788451,13.3715057 L12.462121,10.8916418 L12.462121,10.8916419 C12.595964,10.6330105 12.8433082,10.4736894 13.110983,10.4736925 L15.6775375,10.4736925 L15.6775375,10.4736925 C15.9452068,10.4736958 16.1925436,10.6330166 16.3263844,10.8916419 L17.6096603,13.3715058 L17.6096603,13.3715058 C17.7434998,13.6301448 17.7434998,13.9488007 17.6096603,14.2074397 L17.6096617,14.2074582 Z" id="路径" stroke="#000000" fill-rule="nonzero"></path>
                <circle id="椭圆形" fill="#000000" cx="14.3942504" cy="13.789482" r="1.42105263"></circle>
            </g>
        </g>
    </g>
</svg>