<?xml version="1.0" encoding="UTF-8"?>
<svg width="17px" height="18px" viewBox="0 0 17 18" version="1.1" xmlns="http://www.w3.org/2000/svg" xmlns:xlink="http://www.w3.org/1999/xlink">
    <!-- Generator: Sketch 53.2 (72643) - https://sketchapp.com -->
    <title>专家评审</title>
    <desc>Created with Sketch.</desc>
    <g id="Page-1" stroke="none" stroke-width="1">
        <g id="favicon" transform="translate(-1246.000000, -188.000000)">
            <g id="专家评审" transform="translate(1246.000000, 188.000000)">
                <path d="M11.273258,5.12229467 L11.273258,5.12229467 C10.987141,4.88880025 10.5659154,4.93145913 10.332421,5.21757499 C10.3318717,5.21824813 10.3313237,5.21892233 10.330777,5.2195976 L7.68097701,8.4803697 L6.38322693,7.21429965 L6.37304406,7.20411678 L6.37304406,7.20411679 C6.09818394,6.9556044 5.67390657,6.97696235 5.42539418,7.25182136 C5.1894336,7.51279716 5.19514599,7.91171901 5.43848264,8.16583109 L7.27026763,9.95235888 L7.27026769,9.95235894 C7.39478332,10.0751242 7.56268928,10.1438318 7.73754824,10.1435706 L7.74659968,10.1435706 L7.74659969,10.1435706 C7.92477073,10.1414898 8.09468896,10.0681442 8.21840595,9.93991321 L8.21840597,9.9399132 C8.23253335,9.92606412 8.24576028,9.91132559 8.25800579,9.89578765 L11.370565,6.06930061 L11.370565,6.06930058 C11.6043445,5.78261127 11.5614523,5.36068737 11.2747627,5.12690788 C11.2742631,5.12650044 11.2737629,5.12609373 11.273262,5.12568773 L11.273258,5.12229467 Z M3.82166518,12.5297573 L3.82166515,12.529752 C3.82351784,12.9009206 4.12591151,13.200312 4.49708018,13.198458 C4.49822589,13.1984523 4.49937157,13.1984436 4.50051723,13.198432 L12.1127864,13.198432 L12.1127863,13.198432 C12.4823971,13.2136326 12.7943491,12.9263253 12.8095505,12.5567146 C12.824751,12.1871039 12.5374438,11.8751518 12.167833,11.8599505 C12.1494921,11.8591962 12.1311279,11.8591962 12.112787,11.8599505 L4.49488281,11.8599505 L4.49488278,11.8599505 C4.12567201,11.8629947 3.82659222,12.1605661 3.82168199,12.529757 L3.82166518,12.5297573 Z M15.0454497,0.969946978 L11.7360172,0.969946978 L11.7360173,0.969947094 C11.4689534,0.389516932 10.8882404,0.0178444236 10.2493184,0.0184145582 L6.41830125,0.0184145582 L6.41830126,0.0184145582 C5.77741473,0.0159131038 5.19408528,0.387846305 4.92594523,0.969947094 L1.61763982,0.969947094 L1.61763976,0.969947094 C0.983464469,0.96869232 0.467828557,1.48078548 0.464712705,2.11495414 L0.464712705,16.3879422 L0.464712664,16.3879339 C0.467824737,17.0221026 0.983457799,17.5342005 1.61763088,17.5329498 L15.0454496,17.5329498 L15.0454496,17.5329498 C15.6794392,17.5342027 16.1947503,17.021928 16.1972452,16.3879427 L16.1972452,2.11495469 L16.1972452,2.11495287 C16.1947494,1.48096762 15.679437,0.968692853 15.0454474,0.969948033 L15.0454497,0.969946978 Z M14.8519752,2.30842841 L14.8519752,16.1944764 L1.81111869,16.1944764 L1.81111869,2.30842841 L4.92595401,2.30842854 L4.92595395,2.30842841 C5.1943194,2.89033474 5.77750742,3.2621774 6.41830998,3.25996095 L10.2561113,3.25996095 L10.2561113,3.25996095 C10.8925759,3.25788464 11.4699853,2.88662886 11.7360216,2.30842841 L14.8519752,2.30842841 Z M10.2493095,1.92147951 L6.41829235,1.92147951 L6.41829237,1.92147951 C6.2620746,1.92147953 6.1354349,1.79484002 6.1354349,1.63862204 C6.13543488,1.48240428 6.26207438,1.35576457 6.41829237,1.35576457 C6.41829237,1.35576457 6.41829238,1.35576457 6.41829238,1.35576457 L10.2549667,1.35576457 L10.2549667,1.35576457 C10.4111845,1.35576456 10.5378242,1.48240406 10.5378242,1.63862204 C10.5378242,1.7948398 10.4111847,1.92147951 10.2549667,1.92147951 C10.2549667,1.92147951 10.2549667,1.92147951 10.2549667,1.92147951 L10.2493095,1.92147951 Z" id="形状"></path>
            </g>
        </g>
    </g>
</svg>