<?xml version="1.0" encoding="UTF-8"?>
<svg width="18px" height="18px" viewBox="0 0 18 18" version="1.1" xmlns="http://www.w3.org/2000/svg" xmlns:xlink="http://www.w3.org/1999/xlink">
    <!-- Generator: Sketch 53.2 (72643) - https://sketchapp.com -->
    <title>证书领取</title>
    <desc>Created with Sketch.</desc>
    <g id="Page-1" stroke="none" stroke-width="1">
        <g id="favicon" transform="translate(-1143.000000, -188.000000)">
            <g id="证书领取" transform="translate(1143.000000, 188.000000)">
                <path d="M14.6130516,6.04350703 L14.6130516,2.90475338 L14.6130517,2.90482459 C14.6112311,1.31501317 13.32293,0.0266493701 11.7331186,0.0247509304 L3.09866326,0.0247509304 L3.09866318,0.0247509305 C1.50885176,0.0266107686 0.220523115,1.31494286 0.218659831,2.90475428 L0.218659831,13.6980168 L0.218659756,13.6979683 C0.2211137,15.2871575 1.50942473,16.5745088 3.09861037,16.5757744 L9.41099272,16.5757744 C9.61011795,16.9740249 9.83286821,17.3486503 10.0724935,17.6760257 L10.0724935,17.6760257 C10.3076627,17.9972487 10.7587091,18.0670076 11.0799321,17.8318384 C11.4011552,17.5966691 11.470914,17.1456227 11.2357448,16.8243997 C10.6552441,16.0290238 10.2367437,14.9625225 10.0567434,14.1108965 L10.4167439,14.1108965 L10.4167439,14.1108965 C10.8137674,14.1114671 11.136082,13.7900778 11.1366515,13.3930543 C11.136685,13.3697952 11.1355896,13.3465483 11.1333692,13.3233954 C11.0557441,12.4683944 10.8678689,11.8755187 10.7148687,11.3996432 C10.6226186,11.1082679 10.5506185,10.8798926 10.5326185,10.6796424 C10.5101185,10.4400171 10.5708685,10.2836419 10.7126187,10.2150168 C10.8656189,10.1407667 11.1198692,10.1587668 11.3088694,10.337642 C11.6148697,10.6278923 11.83312,11.0362678 12.0254952,11.3973932 C12.1548704,11.6415185 12.2797455,11.8732687 12.4259957,12.064519 C12.688121,12.4042694 12.9997464,12.5763946 13.3597468,12.5763946 L13.8896224,12.5763946 L13.8896224,12.5763946 C14.2872681,12.5763946 14.6096232,12.2540395 14.6096232,11.8563937 C14.6096232,11.8563937 14.6096232,11.8563937 14.6096232,11.8563937 L14.6096232,11.5953934 L14.6096232,11.5953935 C14.6114694,11.5766937 14.6125952,11.5579297 14.6129982,11.5391434 L14.6129982,7.98188931 C14.9561236,8.4015148 15.298124,8.97976547 15.5894993,9.7762664 C16.0271248,10.9698928 16.14525,12.1005191 16.146375,12.5291446 C16.15425,14.0928964 15.4634992,15.1582727 14.7311233,16.286649 C14.6084982,16.4756492 14.480248,16.6725244 14.3564979,16.8716497 L14.3564979,16.8716496 C14.1461227,17.2090867 14.2491267,17.6531775 14.5865642,17.8635527 C14.5867504,17.8636688 14.5869367,17.8637848 14.587123,17.8639007 L14.587123,17.8639007 C14.9262142,18.0738611 15.3712331,17.9702743 15.5827491,17.6321504 C15.6986243,17.4454002 15.8223744,17.253025 15.9427495,17.0696498 C16.3365,16.4598991 16.7460005,15.8321484 17.0576258,15.1087725 C17.4210013,14.2672715 17.5942515,13.4201455 17.5908765,12.5212695 C17.5886265,11.9655189 17.4491263,10.6582673 16.9462507,9.28014073 L16.9462506,9.28014056 C16.7021693,8.58994874 16.3637074,7.93687317 15.9405012,7.3395133 L15.9405014,7.33951351 C15.580443,6.83042405 15.1305866,6.39124463 14.6129998,6.043512 L14.6130516,6.04350703 Z M13.1707999,6.4462575 C13.1606749,7.15500833 13.1651749,9.06413555 13.1685499,10.4737622 C12.9581746,10.0912617 12.6915493,9.65813624 12.3022989,9.28801081 C11.6970482,8.71538514 10.8060471,8.56463497 10.0849213,8.91563537 L10.0849211,8.91563546 C9.7553555,9.07518737 9.48450792,9.33461935 9.31092022,9.65701133 C9.13092001,9.99338672 9.05891992,10.3815122 9.09941997,10.8123877 C9.13092001,11.1667631 9.23442013,11.4907635 9.34354526,11.8338889 C9.42229535,12.0813891 9.50779545,12.3513895 9.57754553,12.6686398 L9.24004514,12.6686398 L9.24004515,12.6686398 C8.84240289,12.6672218 8.51889997,12.988425 8.51748142,13.386069 C8.51745295,13.3940525 8.51755726,13.402036 8.51779433,13.410016 C8.53241935,13.9275166 8.64716948,14.5260173 8.8339197,15.1346431 L3.09866302,15.1346431 L3.09866307,15.1346431 C2.30468988,15.1334027 1.66153015,14.4897396 1.6609114,13.6957664 L1.6609114,2.90475382 L1.66091136,2.90477849 C1.6621367,2.11124475 2.30510469,1.46825553 3.09863842,1.46700221 L11.7330235,1.46700221 L11.7330234,1.46700221 C12.5265571,1.46824111 13.1695358,2.11121839 13.1707751,2.90475388 L13.1707751,6.446258 L13.1707999,6.4462575 Z M3.43503856,13.0128901 L6.98216769,13.0128901 L6.98216766,13.0128901 C7.38012457,13.0128902 7.702731,12.6902837 7.702731,12.2923268 C7.70273102,11.8943699 7.38012457,11.5717635 6.98216766,11.5717635 L3.43503853,11.5717635 L3.4350385,11.5717635 C3.03708159,11.5717635 2.71447516,11.8943699 2.71447516,12.2923268 C2.71447518,12.6902837 3.03708159,13.0128901 3.4350385,13.0128901 L3.43503856,13.0128901 Z M3.43503856,9.27226079 L6.98216769,9.27226079 L6.98216766,9.27226079 C7.38043394,9.27226081 7.7032935,8.94940123 7.7032935,8.55113495 C7.70329352,8.15286867 7.38043394,7.83000911 6.98216766,7.83000911 L3.43503853,7.83000911 L3.4350385,7.83000911 C3.03677222,7.83000913 2.71391266,8.15286867 2.71391266,8.55113495 C2.71391268,8.94940123 3.03677222,9.27226079 3.4350385,9.27226079 L3.43503856,9.27226079 Z M3.43503856,5.52938143 L11.3966728,5.52938143 L11.3966728,5.52938143 C11.7949391,5.52938145 12.1177986,5.20652188 12.1177986,4.8082556 C12.1177987,4.40998931 11.7949391,4.08712976 11.3966728,4.08712976 L3.43728854,4.08712976 L3.43728854,4.08712976 C3.03902225,4.08650844 2.7156582,4.40886431 2.7150377,4.80713059 C2.71441638,5.20539688 3.03677225,5.52876093 3.43503853,5.52938143 L3.43503856,5.52938143 Z" id="形状"></path>
            </g>
        </g>
    </g>
</svg>