<?xml version="1.0" encoding="UTF-8"?>
<svg width="17px" height="18px" viewBox="0 0 17 18" version="1.1" xmlns="http://www.w3.org/2000/svg" xmlns:xlink="http://www.w3.org/1999/xlink">
    <!-- Generator: Sketch 53.2 (72643) - https://sketchapp.com -->
    <title>在线鉴定</title>
    <desc>Created with Sketch.</desc>
    <g id="Page-1" stroke="none" stroke-width="1">
        <g id="favicon" transform="translate(-1423.000000, -188.000000)">
            <g id="在线鉴定" transform="translate(1423.000000, 188.000000)">
                <g id="分组" transform="translate(0.036916, 0.318165)">
                    <path d="M15.4861704,0.00966798 L13.9644303,0.00966798 L13.9644303,0.017402364 L4.43566922,0.017402364 L4.43566922,0.00966798 L2.91392917,0.00966798 C2.58328426,0.00966798 2.31451441,0.278437824 2.31451441,0.60908274 L2.31451441,11.2457943 C2.31451441,11.5764393 2.58328426,11.8452091 2.91392917,11.8452091 C3.24457409,11.8452091 3.51334393,11.5764393 3.51334393,11.2457943 L3.51334393,1.22009908 L14.884822,1.22009908 L14.884822,15.2792756 C14.884822,15.7375378 14.5193724,16.1165227 14.0707781,16.1261906 L14.0553093,16.1261906 C13.836813,16.1261906 13.6299182,16.0411124 13.4732969,15.8883583 C13.3128085,15.7298035 13.223863,15.5209751 13.223863,15.296678 L13.223863,13.8658169 C13.223863,13.535172 12.9550932,13.2664022 12.6244483,13.2664022 L0.607149144,13.2664022 C0.276504228,13.2664022 0.007734384,13.535172 0.007734384,13.8658169 L0.007734384,15.296678 C0.007734384,16.4181636 0.916524504,17.3269538 2.03801018,17.3269538 L14.0553093,17.3269538 C15.176795,17.3269538 16.0855851,16.4181636 16.0855851,15.296678 L16.0855851,0.611016336 C16.0855851,0.278437824 15.8168153,0.00966798 15.4861704,0.00966798 Z M2.03801018,16.124257 C1.57974793,16.124257 1.2084975,15.751073 1.2084975,15.2947444 L1.2084975,14.4652317 L12.0250335,14.4652317 L12.0250335,15.2947444 C12.0250335,15.5828502 12.0869086,15.8651552 12.2029244,16.124257 L2.03801018,16.124257 Z" id="形状"></path>
                    <path d="M12.58771,6.69991014 C12.58771,4.84945877 11.0833723,3.34512108 9.2329209,3.34512108 C7.38246953,3.34512108 5.87813184,4.84945877 5.87813184,6.69991014 C5.87813184,8.55036151 7.38246953,10.0546992 9.2329209,10.0546992 C9.6699136,10.0546992 10.0875703,9.97155457 10.4704223,9.81880049 L11.3966148,11.0621027 C11.5184314,11.2245248 11.7040566,11.3115366 11.893549,11.3115366 C12.0211663,11.3115366 12.1507173,11.2709311 12.2628658,11.1897201 C12.5374365,10.9866925 12.5935107,10.5980397 12.3904832,10.323469 L11.520365,9.15364346 C12.175854,8.54069353 12.58771,7.66864174 12.58771,6.69991014 L12.58771,6.69991014 Z M9.2329209,8.81719776 C8.06502892,8.81719776 7.11563328,7.86780212 7.11563328,6.69991014 C7.11563328,5.53201816 8.06502892,4.58262252 9.2329209,4.58262252 C10.4008129,4.58262252 11.3502085,5.53201816 11.3502085,6.69991014 C11.3502085,7.86780212 10.4008129,8.81719776 9.2329209,8.81719776 Z" id="形状"></path>
                </g>
            </g>
        </g>
    </g>
</svg>